<svg xmlns="http://www.w3.org/2000/svg" width="69.062" height="46.041" viewBox="0 0 69.062 46.041">
  <g id="mail" transform="translate(0 -85.333)">
    <g id="Group_14" data-name="Group 14" transform="translate(0 85.333)">
      <g id="Group_13" data-name="Group 13">
        <path id="Path_13" data-name="Path 13" d="M65.52,85.333H3.542A3.552,3.552,0,0,0,0,88.875v38.958a3.552,3.552,0,0,0,3.542,3.542H65.52a3.552,3.552,0,0,0,3.542-3.542V88.875A3.552,3.552,0,0,0,65.52,85.333Zm-1.329,2.656L36.568,108.708a3.7,3.7,0,0,1-4.075,0L4.871,87.989ZM49.436,110.075l15.052,18.594c.015.019.034.033.05.05H4.524c.016-.018.035-.031.05-.05l15.052-18.594a1.328,1.328,0,0,0-2.065-1.672l-14.9,18.412V89.649L30.9,110.833a6.339,6.339,0,0,0,7.26,0L66.405,89.649v37.166L51.5,108.4a1.328,1.328,0,0,0-2.065,1.672Z" transform="translate(0 -85.333)" fill="#fff"/>
      </g>
    </g>
  </g>
</svg>
