<svg xmlns="http://www.w3.org/2000/svg" width="60.694" height="60.682" viewBox="0 0 60.694 60.682">
  <g id="phone" transform="translate(0.002)">
    <path id="Path_7" data-name="Path 7" d="M282.626,0a1.185,1.185,0,0,0,0,2.371A23.8,23.8,0,0,1,306.4,26.146a1.185,1.185,0,1,0,2.371,0A26.175,26.175,0,0,0,282.626,0Zm0,0" transform="translate(-248.08)" fill="#fff"/>
    <path id="Path_8" data-name="Path 8" d="M300.457,80.357a1.186,1.186,0,0,0,1.185-1.185,19.036,19.036,0,0,0-19.014-19.015,1.185,1.185,0,0,0,0,2.371,16.663,16.663,0,0,1,16.644,16.644A1.186,1.186,0,0,0,300.457,80.357Zm0,0" transform="translate(-248.081 -53.026)" fill="#fff"/>
    <path id="Path_9" data-name="Path 9" d="M292.139,132.211a1.185,1.185,0,0,0,2.371,0,11.9,11.9,0,0,0-11.882-11.882,1.185,1.185,0,1,0,0,2.37,9.522,9.522,0,0,1,9.511,9.512Zm0,0" transform="translate(-248.081 -106.065)" fill="#fff"/>
    <path id="Path_10" data-name="Path 10" d="M281.441,181.669a1.185,1.185,0,0,0,1.185,1.185,2.383,2.383,0,0,1,2.38,2.381,1.185,1.185,0,1,0,2.371,0,4.756,4.756,0,0,0-4.751-4.751A1.185,1.185,0,0,0,281.441,181.669Zm0,0" transform="translate(-248.08 -159.089)" fill="#fff"/>
    <path id="Path_11" data-name="Path 11" d="M169.8,315.865a1.185,1.185,0,1,1-1.185-1.185A1.185,1.185,0,0,1,169.8,315.865Zm0,0" transform="translate(-147.588 -277.377)" fill="#fff"/>
    <path id="Path_12" data-name="Path 12" d="M32.483,122.77a14.093,14.093,0,0,0,16.16-2.724l2.451-2.451a3.4,3.4,0,0,0,0-4.813l-9.47-9.47a3.4,3.4,0,0,0-4.813,0l-4.024,4.024a2.346,2.346,0,0,1-2.892.382,44.466,44.466,0,0,1-4.182-3.031,1.185,1.185,0,0,0-1.5,1.835,46.751,46.751,0,0,0,4.407,3.193,4.729,4.729,0,0,0,5.844-.7l4.025-4.025a1.03,1.03,0,0,1,1.459,0l9.471,9.47a1.031,1.031,0,0,1,0,1.46l-2.451,2.452a11.722,11.722,0,0,1-13.441,2.271A65.688,65.688,0,0,1,3.558,90.518a11.634,11.634,0,0,1,2.276-13.39l2.4-2.4a1.029,1.029,0,0,1,1.458,0L19.162,84.2a1.03,1.03,0,0,1,0,1.459l-4.024,4.024a4.73,4.73,0,0,0-.7,5.845c.684,1.07,1.421,2.126,2.192,3.138a1.185,1.185,0,1,0,1.886-1.436c-.731-.96-1.431-1.962-2.08-2.977a2.346,2.346,0,0,1,.382-2.892l4.024-4.024a3.4,3.4,0,0,0,0-4.813l-9.471-9.47a3.4,3.4,0,0,0-4.812,0l-2.4,2.4A14,14,0,0,0,1.434,91.571a68.04,68.04,0,0,0,31.049,31.2Zm0,0" transform="translate(0 -63.515)" fill="#fff"/>
  </g>
</svg>
